<svg width="146" height="146" viewBox="0 0 146 146" fill="none" xmlns="http://www.w3.org/2000/svg">
<circle cx="73" cy="73" r="68" fill="#1A87CE" stroke="#007AC9" stroke-width="10"/>
<circle cx="73" cy="73" r="68" stroke="white" stroke-dasharray="1 1"/>
<path d="M50.3242 111.234C49.4883 111.234 48.7227 111.082 48.0273 110.777C47.3398 110.465 46.7617 109.988 46.293 109.348H46.1523C46.2461 110.098 46.293 110.809 46.293 111.48V116.766H44.3477V98.1562H45.9297L46.1992 99.9141H46.293C46.793 99.2109 47.375 98.7031 48.0391 98.3906C48.7031 98.0781 49.4648 97.9219 50.3242 97.9219C52.0273 97.9219 53.3398 98.5039 54.2617 99.668C55.1914 100.832 55.6562 102.465 55.6562 104.566C55.6562 106.676 55.1836 108.316 54.2383 109.488C53.3008 110.652 51.9961 111.234 50.3242 111.234ZM50.043 99.5742C48.7305 99.5742 47.7812 99.9375 47.1953 100.664C46.6094 101.391 46.3086 102.547 46.293 104.133V104.566C46.293 106.371 46.5938 107.664 47.1953 108.445C47.7969 109.219 48.7617 109.605 50.0898 109.605C51.1992 109.605 52.0664 109.156 52.6914 108.258C53.3242 107.359 53.6406 106.121 53.6406 104.543C53.6406 102.941 53.3242 101.715 52.6914 100.863C52.0664 100.004 51.1836 99.5742 50.043 99.5742ZM70.1523 104.566C70.1523 106.66 69.625 108.297 68.5703 109.477C67.5156 110.648 66.0586 111.234 64.1992 111.234C63.0508 111.234 62.0312 110.965 61.1406 110.426C60.25 109.887 59.5625 109.113 59.0781 108.105C58.5938 107.098 58.3516 105.918 58.3516 104.566C58.3516 102.473 58.875 100.844 59.9219 99.6797C60.9688 98.5078 62.4219 97.9219 64.2812 97.9219C66.0781 97.9219 67.5039 98.5195 68.5586 99.7148C69.6211 100.91 70.1523 102.527 70.1523 104.566ZM60.3672 104.566C60.3672 106.207 60.6953 107.457 61.3516 108.316C62.0078 109.176 62.9727 109.605 64.2461 109.605C65.5195 109.605 66.4844 109.18 67.1406 108.328C67.8047 107.469 68.1367 106.215 68.1367 104.566C68.1367 102.934 67.8047 101.695 67.1406 100.852C66.4844 100 65.5117 99.5742 64.2227 99.5742C62.9492 99.5742 61.9883 99.9922 61.3398 100.828C60.6914 101.664 60.3672 102.91 60.3672 104.566ZM81.0625 98.1562H83.1953L77.6523 104.355L83.6523 111H81.3789L75.5195 104.496V111H73.5742V98.1562H75.5195V104.402L81.0625 98.1562ZM87.9883 111H86.043V98.1562H87.9883V111ZM85.8789 94.6758C85.8789 94.2305 85.9883 93.9062 86.207 93.7031C86.4258 93.4922 86.6992 93.3867 87.0273 93.3867C87.3398 93.3867 87.6094 93.4922 87.8359 93.7031C88.0625 93.9141 88.1758 94.2383 88.1758 94.6758C88.1758 95.1133 88.0625 95.4414 87.8359 95.6602C87.6094 95.8711 87.3398 95.9766 87.0273 95.9766C86.6992 95.9766 86.4258 95.8711 86.207 95.6602C85.9883 95.4414 85.8789 95.1133 85.8789 94.6758ZM102.531 101.379C102.531 102.215 102.289 102.852 101.805 103.289C101.328 103.719 100.656 104.008 99.7891 104.156V104.262C100.883 104.41 101.68 104.73 102.18 105.223C102.688 105.715 102.941 106.395 102.941 107.262C102.941 108.457 102.5 109.379 101.617 110.027C100.742 110.676 99.4609 111 97.7734 111H92.1133V98.1562H97.75C100.938 98.1562 102.531 99.2305 102.531 101.379ZM100.996 107.133C100.996 106.438 100.73 105.934 100.199 105.621C99.6758 105.301 98.8047 105.141 97.5859 105.141H94.0586V109.371H97.6328C99.875 109.371 100.996 108.625 100.996 107.133ZM100.633 101.566C100.633 100.941 100.391 100.5 99.9062 100.242C99.4297 99.9766 98.7031 99.8438 97.7266 99.8438H94.0586V103.465H97.3516C98.5547 103.465 99.4023 103.316 99.8945 103.02C100.387 102.723 100.633 102.238 100.633 101.566Z" fill="white"/>
<path d="M70.7344 85H35.8027V77.6514L48.3467 64.9707C52.0609 61.1654 54.4876 58.5335 55.627 57.0752C56.7663 55.5941 57.5866 54.2269 58.0879 52.9736C58.5892 51.7204 58.8398 50.4215 58.8398 49.0771C58.8398 47.0719 58.2816 45.5794 57.165 44.5996C56.0713 43.6198 54.6016 43.1299 52.7559 43.1299C50.819 43.1299 48.9391 43.5742 47.1162 44.4629C45.2933 45.3516 43.3906 46.6162 41.4082 48.2568L35.666 41.4551C38.127 39.3587 40.1663 37.8776 41.7842 37.0117C43.402 36.1458 45.168 35.485 47.082 35.0293C48.9961 34.5508 51.138 34.3115 53.5078 34.3115C56.6296 34.3115 59.3867 34.8812 61.7793 36.0205C64.1719 37.1598 66.029 38.7549 67.3506 40.8057C68.6722 42.8564 69.333 45.2035 69.333 47.8467C69.333 50.1481 68.9229 52.3128 68.1025 54.3408C67.305 56.346 66.0518 58.4082 64.3428 60.5273C62.6566 62.6465 59.6715 65.6657 55.3877 69.585L48.9619 75.6348V76.1133H70.7344V85ZM93.9766 53.0762C98.8073 53.0762 102.647 54.432 105.495 57.1436C108.366 59.8551 109.802 63.5693 109.802 68.2861C109.802 73.8688 108.081 78.1641 104.641 81.1719C101.2 84.1797 96.278 85.6836 89.875 85.6836C84.3151 85.6836 79.8262 84.7835 76.4082 82.9834V73.8574C78.2083 74.8145 80.3047 75.6006 82.6973 76.2158C85.0898 76.8083 87.3571 77.1045 89.499 77.1045C95.9476 77.1045 99.1719 74.4613 99.1719 69.1748C99.1719 64.139 95.8337 61.6211 89.1572 61.6211C87.9495 61.6211 86.6165 61.7464 85.1582 61.9971C83.6999 62.2249 82.515 62.4756 81.6035 62.749L77.3994 60.4932L79.2793 35.0293H106.384V43.9844H88.542L87.6191 53.7939L88.8154 53.5547C90.2054 53.2357 91.9258 53.0762 93.9766 53.0762Z" fill="white"/>
</svg>
