<svg width="437" height="810" viewBox="0 0 437 810" fill="none" xmlns="http://www.w3.org/2000/svg">
<path d="M403.847 810H83.8415C37.7607 810 0.256004 766.923 0.256004 713.847C0.256004 660.769 37.7607 617.565 83.9695 617.565H353.287C378.247 617.565 398.599 591.923 398.599 559.744C398.599 527.564 378.247 502.051 353.287 502.051H83.5856C37.5047 501.026 0 457.821 0 404.744C0 351.666 37.5047 308.462 83.7136 308.462H353.287C378.247 308.462 398.599 282.821 398.599 250.77C398.599 218.718 378.247 192.949 353.287 192.949L83.5856 192.308C37.5047 192.308 0 149.359 0 96.282C0 43.2051 37.5047 0 83.7136 0H392.584C403.187 0 411.784 8.60991 411.784 19.2308C411.784 29.8516 403.187 38.4615 392.584 38.4615H83.7136C58.7531 38.4615 38.4008 64.1025 38.4008 96.282C38.4008 128.462 58.7531 153.846 83.7136 153.846H353.287C399.496 153.846 437 197.051 437 250.128C437 303.205 399.496 346.283 353.287 346.283H83.7136C58.7531 346.283 38.4008 371.923 38.4008 404.103C38.4008 436.282 58.7531 461.924 83.7136 461.924H353.287C399.496 461.924 437 505 437 558.077C437 611.154 399.496 654.359 353.287 654.359H83.7136C58.7531 654.359 38.4008 680 38.4008 712.179C38.4008 744.359 58.7531 769.872 83.7136 769.872H403.719C414.323 769.872 422.92 778.481 422.92 789.103C422.92 799.724 414.323 808.334 403.719 808.334L403.847 810Z" fill="#003D75"/>
</svg>
