<svg width="50" height="24" viewBox="0 0 50 24" fill="none" xmlns="http://www.w3.org/2000/svg">
<path d="M0 12C0 5.37258 5.37258 0 12 0H38C44.6274 0 50 5.37258 50 12C50 18.6274 44.6274 24 38 24H12C5.37258 24 0 18.6274 0 12Z" fill="#DFF1FD"/>
<circle cx="12" cy="12" r="9" fill="#BDE3FB"/>
<path d="M10 6.5H14C14.8284 6.5 15.5 7.17157 15.5 8V16C15.5 16.8284 14.8284 17.5 14 17.5H10C9.17157 17.5 8.5 16.8284 8.5 16V8C8.5 7.17157 9.17157 6.5 10 6.5Z" stroke="#007AC9" stroke-linecap="round"/>
<path fill-rule="evenodd" clip-rule="evenodd" d="M10 10.5C10 10.2239 10.2239 10 10.5 10L13.5 10C13.7761 10 14 10.2239 14 10.5C14 10.7761 13.7761 11 13.5 11H10.5C10.2239 11 10 10.7761 10 10.5ZM10 12.5C10 12.2239 10.2239 12 10.5 12H12.5C12.7761 12 13 12.2239 13 12.5C13 12.7761 12.7761 13 12.5 13H10.5C10.2239 13 10 12.7761 10 12.5ZM10 14.5C10 14.2239 10.2239 14 10.5 14H11.5C11.7761 14 12 14.2239 12 14.5C12 14.7761 11.7761 15 11.5 15H10.5C10.2239 15 10 14.7761 10 14.5Z" fill="#007AC9"/>
<path d="M23.9707 16.2676C23.9707 15.9824 24.0449 15.7637 24.1934 15.6113C24.3418 15.459 24.5566 15.3828 24.8379 15.3828C25.123 15.3828 25.3398 15.4629 25.4883 15.623C25.6367 15.7793 25.7109 15.9941 25.7109 16.2676C25.7109 16.5449 25.6348 16.7656 25.4824 16.9297C25.334 17.0898 25.1191 17.1699 24.8379 17.1699C24.5566 17.1699 24.3418 17.0898 24.1934 16.9297C24.0449 16.7695 23.9707 16.5488 23.9707 16.2676ZM30.7676 17.1172C29.9473 17.1172 29.3105 16.8223 28.8574 16.2324H28.7754C28.8301 16.7793 28.8574 17.1113 28.8574 17.2285V19.8828H27.4805V10.5195H28.5938C28.625 10.6406 28.6895 10.9297 28.7871 11.3867H28.8574C29.2871 10.7305 29.9316 10.4023 30.791 10.4023C31.5996 10.4023 32.2285 10.6953 32.6777 11.2812C33.1309 11.8672 33.3574 12.6895 33.3574 13.748C33.3574 14.8066 33.127 15.6328 32.666 16.2266C32.209 16.8203 31.5762 17.1172 30.7676 17.1172ZM30.4336 11.5273C29.8867 11.5273 29.4863 11.6875 29.2324 12.0078C28.9824 12.3281 28.8574 12.8398 28.8574 13.543V13.748C28.8574 14.5371 28.9824 15.1094 29.2324 15.4648C29.4824 15.8164 29.8906 15.9922 30.457 15.9922C30.9336 15.9922 31.3008 15.7969 31.5586 15.4062C31.8164 15.0156 31.9453 14.459 31.9453 13.7363C31.9453 13.0098 31.8164 12.4609 31.5586 12.0898C31.3047 11.7148 30.9297 11.5273 30.4336 11.5273ZM37.1426 17.1172C36.334 17.1172 35.7031 16.8242 35.25 16.2383C34.7969 15.6523 34.5703 14.8301 34.5703 13.7715C34.5703 12.709 34.7988 11.8828 35.2559 11.293C35.7168 10.6992 36.3535 10.4023 37.166 10.4023C38.0176 10.4023 38.666 10.7168 39.1113 11.3457H39.1816C39.1152 10.8809 39.082 10.5137 39.082 10.2441V7.88281H40.4648V17H39.3867L39.1465 16.1504H39.082C38.6406 16.7949 37.9941 17.1172 37.1426 17.1172ZM37.5117 16.0039C38.0781 16.0039 38.4902 15.8457 38.748 15.5293C39.0059 15.209 39.1387 14.6914 39.1465 13.9766V13.7832C39.1465 12.9668 39.0137 12.3867 38.748 12.043C38.4824 11.6992 38.0664 11.5273 37.5 11.5273C37.0156 11.5273 36.6426 11.7246 36.3809 12.1191C36.1191 12.5098 35.9883 13.0684 35.9883 13.7949C35.9883 14.5137 36.1152 15.0625 36.3691 15.4414C36.623 15.8164 37.0039 16.0039 37.5117 16.0039ZM45.6855 11.5625H44.1035V17H42.7207V11.5625H41.6543V10.918L42.7207 10.4961V10.0742C42.7207 9.30859 42.9004 8.74219 43.2598 8.375C43.6191 8.00391 44.168 7.81836 44.9062 7.81836C45.3906 7.81836 45.8672 7.89844 46.3359 8.05859L45.9727 9.10156C45.6328 8.99219 45.3086 8.9375 45 8.9375C44.6875 8.9375 44.459 9.03516 44.3145 9.23047C44.1738 9.42188 44.1035 9.71094 44.1035 10.0977V10.5195H45.6855V11.5625Z" fill="#007AC9"/>
</svg>
