<svg width="50" height="24" viewBox="0 0 50 24" fill="none" xmlns="http://www.w3.org/2000/svg">
<path d="M0 12C0 5.37258 5.37258 0 12 0H38C44.6274 0 50 5.37258 50 12V12C50 18.6274 44.6274 24 38 24H12C5.37258 24 0 18.6274 0 12V12Z" fill="#DFF1FD"/>
<circle cx="12" cy="12" r="9" fill="#BDE3FB"/>
<path d="M10 6.5H14C14.8284 6.5 15.5 7.17157 15.5 8V16C15.5 16.8284 14.8284 17.5 14 17.5H10C9.17157 17.5 8.5 16.8284 8.5 16V8C8.5 7.17157 9.17157 6.5 10 6.5Z" stroke="#007AC9" stroke-linecap="round"/>
<path fill-rule="evenodd" clip-rule="evenodd" d="M10 10.5C10 10.2239 10.2239 10 10.5 10L13.5 10C13.7761 10 14 10.2239 14 10.5C14 10.7761 13.7761 11 13.5 11H10.5C10.2239 11 10 10.7761 10 10.5ZM10 12.5C10 12.2239 10.2239 12 10.5 12H12.5C12.7761 12 13 12.2239 13 12.5C13 12.7761 12.7761 13 12.5 13H10.5C10.2239 13 10 12.7761 10 12.5ZM10 14.5C10 14.2239 10.2239 14 10.5 14H11.5C11.7761 14 12 14.2239 12 14.5C12 14.7761 11.7761 15 11.5 15H10.5C10.2239 15 10 14.7761 10 14.5Z" fill="#007AC9"/>
<path d="M23.25 16.2676C23.25 15.9824 23.3242 15.7637 23.4727 15.6113C23.6211 15.459 23.8359 15.3828 24.1172 15.3828C24.4023 15.3828 24.6191 15.4629 24.7676 15.623C24.916 15.7793 24.9902 15.9941 24.9902 16.2676C24.9902 16.5449 24.9141 16.7656 24.7617 16.9297C24.6133 17.0898 24.3984 17.1699 24.1172 17.1699C23.8359 17.1699 23.6211 17.0898 23.4727 16.9297C23.3242 16.7695 23.25 16.5488 23.25 16.2676ZM28.9453 17.1172C28.1367 17.1172 27.5059 16.8242 27.0527 16.2383C26.5996 15.6523 26.373 14.8301 26.373 13.7715C26.373 12.709 26.6016 11.8828 27.0586 11.293C27.5195 10.6992 28.1562 10.4023 28.9688 10.4023C29.8203 10.4023 30.4688 10.7168 30.9141 11.3457H30.9844C30.918 10.8809 30.8848 10.5137 30.8848 10.2441V7.88281H32.2676V17H31.1895L30.9492 16.1504H30.8848C30.4434 16.7949 29.7969 17.1172 28.9453 17.1172ZM29.3145 16.0039C29.8809 16.0039 30.293 15.8457 30.5508 15.5293C30.8086 15.209 30.9414 14.6914 30.9492 13.9766V13.7832C30.9492 12.9668 30.8164 12.3867 30.5508 12.043C30.2852 11.6992 29.8691 11.5273 29.3027 11.5273C28.8184 11.5273 28.4453 11.7246 28.1836 12.1191C27.9219 12.5098 27.791 13.0684 27.791 13.7949C27.791 14.5137 27.918 15.0625 28.1719 15.4414C28.4258 15.8164 28.8066 16.0039 29.3145 16.0039ZM39.9844 13.748C39.9844 14.8066 39.7129 15.6328 39.1699 16.2266C38.627 16.8203 37.8711 17.1172 36.9023 17.1172C36.2969 17.1172 35.7617 16.9805 35.2969 16.707C34.832 16.4336 34.4746 16.041 34.2246 15.5293C33.9746 15.0176 33.8496 14.4238 33.8496 13.748C33.8496 12.6973 34.1191 11.877 34.6582 11.2871C35.1973 10.6973 35.957 10.4023 36.9375 10.4023C37.875 10.4023 38.6172 10.7051 39.1641 11.3105C39.7109 11.9121 39.9844 12.7246 39.9844 13.748ZM35.2676 13.748C35.2676 15.2441 35.8203 15.9922 36.9258 15.9922C38.0195 15.9922 38.5664 15.2441 38.5664 13.748C38.5664 12.2676 38.0156 11.5273 36.9141 11.5273C36.3359 11.5273 35.916 11.7188 35.6543 12.1016C35.3965 12.4844 35.2676 13.0332 35.2676 13.748ZM44.1855 17.1172C43.2051 17.1172 42.459 16.832 41.9473 16.2617C41.4395 15.6875 41.1855 14.8652 41.1855 13.7949C41.1855 12.7051 41.4512 11.8672 41.9824 11.2812C42.5176 10.6953 43.2891 10.4023 44.2969 10.4023C44.9805 10.4023 45.5957 10.5293 46.1426 10.7832L45.7266 11.8906C45.1445 11.6641 44.6641 11.5508 44.2852 11.5508C43.1641 11.5508 42.6035 12.2949 42.6035 13.7832C42.6035 14.5098 42.7422 15.0566 43.0195 15.4238C43.3008 15.7871 43.7109 15.9688 44.25 15.9688C44.8633 15.9688 45.4434 15.8164 45.9902 15.5117V16.7129C45.7441 16.8574 45.4805 16.9609 45.1992 17.0234C44.9219 17.0859 44.584 17.1172 44.1855 17.1172Z" fill="#007AC9"/>
</svg>
