<svg width="67" height="42" viewBox="0 0 67 42" fill="none" xmlns="http://www.w3.org/2000/svg">
<path d="M0 21.1388C0 7.26222 12.0883 0 22.8626 0C27.4113 0 31.4072 0.518301 35.2782 1.55147L35.2685 11.3167C31.5187 9.82353 29.8655 9.24859 24.8918 9.24859C18.1087 9.24859 13.4092 14.4747 13.4092 21.0238C13.4092 27.6296 18.1141 32.7084 24.8918 32.7084C29.8655 32.7084 32.1231 31.5019 35.2578 30.2954L35.2632 40.2078C31.6988 41.3577 27.5968 41.9893 22.4954 41.9893C11.4972 41.9893 0 34.513 0 21.1388Z" fill="#F4584C"/>
<path d="M62.1339 18.8554H48.8603V6.5H44.0386V37.0412H48.8603V23.1965H62.1339V37.0412H67V6.5H62.1339V18.8554Z" fill="#F4584C"/>
</svg>
