<svg width="40" height="40" viewBox="0 0 40 40" fill="none" xmlns="http://www.w3.org/2000/svg">
<path d="M12.1249 34.9994V14.7576H5.39684V34.9994H12.1255H12.1249ZM8.76205 11.9944C11.1078 11.9944 12.5682 10.44 12.5682 8.49749C12.5241 6.51093 11.1078 5 8.80673 5C6.50387 5 5 6.51093 5 8.49749C5 10.44 6.45978 11.9944 8.71795 11.9944H8.76146H8.76205ZM15.8488 34.9994H22.5762V23.6968C22.5762 23.0924 22.6203 22.4869 22.7979 22.0553C23.2841 20.846 24.3911 19.5943 26.2501 19.5943C28.6841 19.5943 29.6582 21.4504 29.6582 24.1718V34.9994H36.3857V23.3934C36.3857 17.1763 33.0669 14.2831 28.6405 14.2831C25.0114 14.2831 23.4175 16.3114 22.5321 17.693H22.5768V14.7582H15.8493C15.9369 16.6571 15.8488 35 15.8488 35V34.9994Z" fill="#007AC9"/>
</svg>
