<svg width="16" height="16" viewBox="0 0 16 16" fill="none" xmlns="http://www.w3.org/2000/svg">
<path d="M4.84997 13.9998V5.90303H2.15874V13.9998H4.8502H4.84997ZM3.50482 4.79776C4.44313 4.79776 5.02728 4.17598 5.02728 3.399C5.00964 2.60437 4.44313 2 3.52269 2C2.60155 2 2 2.60437 2 3.399C2 4.17598 2.58391 4.79776 3.48718 4.79776H3.50458H3.50482ZM6.3395 13.9998H9.03049V9.47872C9.03049 9.23697 9.04813 8.99475 9.11915 8.82214C9.31363 8.3384 9.75645 7.83774 10.5 7.83774C11.4736 7.83774 11.8633 8.58015 11.8633 9.66873V13.9998H14.5543V9.35737C14.5543 6.8705 13.2268 5.71326 11.4562 5.71326C10.0045 5.71326 9.36701 6.52457 9.01286 7.07721H9.03073V5.90327H6.33973C6.37477 6.66285 6.3395 14 6.3395 14V13.9998Z" fill="white"/>
</svg>
