<svg width="40" height="40" viewBox="0 0 40 40" fill="none" xmlns="http://www.w3.org/2000/svg">
<path d="M25.5714 5H14.2143C11.7876 5.05455 9.47551 6.04285 7.75918 7.75918C6.04285 9.47551 5.05455 11.7876 5 14.2143V25.5714C4.99936 28.0354 5.96326 30.4016 7.68538 32.1638C9.4075 33.926 11.751 34.944 14.2143 35H25.5714C26.8096 35 28.0357 34.7561 29.1796 34.2823C30.3235 33.8085 31.3629 33.114 32.2384 32.2384C33.114 31.3629 33.8085 30.3235 34.2823 29.1796C34.7561 28.0357 35 26.8096 35 25.5714V14.2143C34.944 11.751 33.926 9.4075 32.1638 7.68538C30.4016 5.96326 28.0354 4.99936 25.5714 5ZM32 25.5714C32 27.2764 31.3227 28.9115 30.1171 30.1171C28.9115 31.3227 27.2764 32 25.5714 32H14.2143C12.5093 32 10.8742 31.3227 9.6686 30.1171C8.46301 28.9115 7.78571 27.2764 7.78571 25.5714V14.2143C7.78571 12.5093 8.46301 10.8742 9.6686 9.6686C10.8742 8.46301 12.5093 7.78571 14.2143 7.78571H25.5714C27.2764 7.78571 28.9115 8.46301 30.1171 9.6686C31.3227 10.8742 32 12.5093 32 14.2143V25.5714Z" fill="#007AC9"/>
<path d="M20 12.5C19.0151 12.5 18.0398 12.694 17.1299 13.0709C16.2199 13.4478 15.3931 14.0003 14.6967 14.6967C14.0003 15.3931 13.4478 16.2199 13.0709 17.1299C12.694 18.0398 12.5 19.0151 12.5 20C12.5 20.9849 12.694 21.9602 13.0709 22.8701C13.4478 23.7801 14.0003 24.6069 14.6967 25.3033C15.3931 25.9997 16.2199 26.5522 17.1299 26.9291C18.0398 27.306 19.0151 27.5 20 27.5C21.9891 27.5 23.8968 26.7098 25.3033 25.3033C26.7098 23.8968 27.5 21.9891 27.5 20C27.5 18.0109 26.7098 16.1032 25.3033 14.6967C23.8968 13.2902 21.9891 12.5 20 12.5ZM20 24.7143C18.7497 24.7143 17.5506 24.2176 16.6665 23.3335C15.7824 22.4494 15.2857 21.2503 15.2857 20C15.2857 18.7497 15.7824 17.5506 16.6665 16.6665C17.5506 15.7824 18.7497 15.2857 20 15.2857C21.2503 15.2857 22.4494 15.7824 23.3335 16.6665C24.2176 17.5506 24.7143 18.7497 24.7143 20C24.7143 21.2503 24.2176 22.4494 23.3335 23.3335C22.4494 24.2176 21.2503 24.7143 20 24.7143Z" fill="#007AC9"/>
<path d="M27.9286 12.9286C28.2127 12.9286 28.4853 12.8157 28.6862 12.6148C28.8871 12.4138 29 12.1413 29 11.8571C29 11.573 28.8871 11.3005 28.6862 11.0995C28.4853 10.8986 28.2127 10.7857 27.9286 10.7857C27.6444 10.7857 27.3719 10.8986 27.171 11.0995C26.97 11.3005 26.8571 11.573 26.8571 11.8571C26.8571 12.1413 26.97 12.4138 27.171 12.6148C27.3719 12.8157 27.6444 12.9286 27.9286 12.9286Z" fill="#007AC9"/>
</svg>
