<svg width="16" height="16" viewBox="0 0 16 16" fill="none" xmlns="http://www.w3.org/2000/svg">
<path d="M10.2286 2H5.68571C4.71506 2.02182 3.79021 2.41714 3.10367 3.10367C2.41714 3.79021 2.02182 4.71506 2 5.68571V10.2286C1.99975 11.2141 2.3853 12.1607 3.07415 12.8655C3.763 13.5704 4.7004 13.9776 5.68571 14H10.2286C10.7238 14 11.2143 13.9024 11.6718 13.7129C12.1294 13.5234 12.5452 13.2456 12.8954 12.8954C13.2456 12.5452 13.5234 12.1294 13.7129 11.6718C13.9024 11.2143 14 10.7238 14 10.2286V5.68571C13.9776 4.7004 13.5704 3.763 12.8655 3.07415C12.1607 2.3853 11.2141 1.99975 10.2286 2ZM12.8 10.2286C12.8 10.9106 12.5291 11.5646 12.0468 12.0468C11.5646 12.5291 10.9106 12.8 10.2286 12.8H5.68571C5.00373 12.8 4.34968 12.5291 3.86744 12.0468C3.3852 11.5646 3.11429 10.9106 3.11429 10.2286V5.68571C3.11429 5.00373 3.3852 4.34968 3.86744 3.86744C4.34968 3.3852 5.00373 3.11429 5.68571 3.11429H10.2286C10.9106 3.11429 11.5646 3.3852 12.0468 3.86744C12.5291 4.34968 12.8 5.00373 12.8 5.68571V10.2286Z" fill="white"/>
<path d="M8 5C7.60603 5 7.21593 5.0776 6.85195 5.22836C6.48797 5.37913 6.15726 5.6001 5.87868 5.87868C5.6001 6.15726 5.37913 6.48797 5.22836 6.85195C5.0776 7.21593 5 7.60603 5 8C5 8.39397 5.0776 8.78407 5.22836 9.14805C5.37913 9.51203 5.6001 9.84274 5.87868 10.1213C6.15726 10.3999 6.48797 10.6209 6.85195 10.7716C7.21593 10.9224 7.60603 11 8 11C8.79565 11 9.55871 10.6839 10.1213 10.1213C10.6839 9.55871 11 8.79565 11 8C11 7.20435 10.6839 6.44129 10.1213 5.87868C9.55871 5.31607 8.79565 5 8 5ZM8 9.88571C7.49988 9.88571 7.02024 9.68704 6.6666 9.3334C6.31296 8.97976 6.11429 8.50012 6.11429 8C6.11429 7.49988 6.31296 7.02024 6.6666 6.6666C7.02024 6.31296 7.49988 6.11429 8 6.11429C8.50012 6.11429 8.97976 6.31296 9.3334 6.6666C9.68704 7.02024 9.88571 7.49988 9.88571 8C9.88571 8.50012 9.68704 8.97976 9.3334 9.3334C8.97976 9.68704 8.50012 9.88571 8 9.88571Z" fill="white"/>
<path d="M11.1714 5.17143C11.2851 5.17143 11.3941 5.12628 11.4745 5.0459C11.5548 4.96553 11.6 4.85652 11.6 4.74286C11.6 4.62919 11.5548 4.52018 11.4745 4.43981C11.3941 4.35944 11.2851 4.31429 11.1714 4.31429C11.0578 4.31429 10.9488 4.35944 10.8684 4.43981C10.788 4.52018 10.7429 4.62919 10.7429 4.74286C10.7429 4.85652 10.788 4.96553 10.8684 5.0459C10.9488 5.12628 11.0578 5.17143 11.1714 5.17143Z" fill="white"/>
</svg>
