<svg width="20" height="20" viewBox="0 0 20 20" fill="none" xmlns="http://www.w3.org/2000/svg">
<path fill-rule="evenodd" clip-rule="evenodd" d="M9.95528 0.5C10.6553 0.5 11.2281 1.07199 11.2281 1.77106V6.49626C11.2281 7.19543 10.6553 7.76742 9.95528 7.76742C9.25514 7.76742 8.68244 7.19543 8.68244 6.49626V1.77106C8.68244 1.07199 9.25514 0.5 9.95528 0.5Z" fill="#00A1E4"/>
<path fill-rule="evenodd" clip-rule="evenodd" d="M0.0641634 7.58626C0.287802 6.89887 1.03385 6.51926 1.7222 6.74256L6.37426 8.25211C7.06263 8.4754 7.44274 9.22046 7.21911 9.90782C6.99551 10.5952 6.24936 10.9748 5.56109 10.7515L0.908946 9.24207C0.220679 9.01868 -0.159527 8.27364 0.0641634 7.58626Z" fill="#00A1E4"/>
<path fill-rule="evenodd" clip-rule="evenodd" d="M3.85945 19.2504C3.27398 18.8255 3.14296 17.9996 3.5684 17.415L6.44356 13.4631C6.86889 12.8784 7.69594 12.7475 8.28151 13.1724C8.86705 13.5972 8.99798 14.4231 8.57263 15.0078L5.69747 18.9597C5.27205 19.5444 4.445 19.6752 3.85945 19.2504Z" fill="#00A1E4"/>
<path fill-rule="evenodd" clip-rule="evenodd" d="M16.1409 19.2502C15.5554 19.675 14.7283 19.5441 14.3029 18.9595L11.4278 15.0076C11.0023 14.4229 11.1333 13.597 11.7189 13.1722C12.3044 12.7474 13.1314 12.8782 13.5568 13.4629L16.432 17.4147C16.8574 17.9995 16.7264 18.8254 16.1409 19.2502Z" fill="#00A1E4"/>
<path fill-rule="evenodd" clip-rule="evenodd" d="M19.9359 7.58595C20.1595 8.27333 19.7794 9.01844 19.091 9.24173L14.439 10.7512C13.7506 10.9745 13.0046 10.5949 12.7808 9.90751C12.5572 9.22022 12.9373 8.4751 13.6257 8.25178L18.2778 6.74233C18.9661 6.51895 19.7122 6.89862 19.9359 7.58595Z" fill="#00A1E4"/>
</svg>
