<svg width="20" height="20" viewBox="0 0 20 20" fill="none" xmlns="http://www.w3.org/2000/svg">
<path fill-rule="evenodd" clip-rule="evenodd" d="M18.4326 4.67717C17.6892 3.52136 16.7878 2.57499 15.7348 1.84C14.6823 1.10452 13.4769 0.579948 12.1257 0.267238C9.90716 -0.245218 7.75058 -0.0139582 5.67076 0.903324C4.52235 1.40996 3.50532 2.10859 2.62999 2.99727C1.5362 4.10751 0.74698 5.36465 0.265279 6.76869L0.252978 6.80651C0.236249 6.85596 0.220996 6.90638 0.205251 6.95632C-0.288258 8.5795 0.173269 9.47642 0.899018 8.72495C0.927064 8.69295 0.956586 8.66095 0.985616 8.62895C0.996441 8.61586 1.00727 8.60423 1.01809 8.59065C1.86685 7.53907 3.21748 6.66252 3.21748 6.66252L3.21797 6.663C3.56239 6.42689 3.91912 6.2063 4.2906 6.00122C4.71523 5.75638 5.15904 5.53143 5.57284 5.37968C5.57284 5.37968 5.95761 5.2066 6.05995 4.67911L6.06635 4.65002C6.06684 4.64469 6.06832 4.64033 6.0693 4.63451C6.13819 4.19574 6.61546 2.98854 7.96609 2.90951C8.38924 2.85182 8.80894 2.92648 9.17945 3.10005C9.8309 3.40549 10.3308 4.01636 10.4322 4.75232C10.5124 5.3375 10.3707 5.88923 10.0676 6.32605C10.0513 6.35078 10.0326 6.37599 10.012 6.40168L9.99425 6.42495C9.74036 6.74784 9.39299 6.99801 8.9787 7.13861C8.73071 7.22976 8.4783 7.27533 8.23671 7.28212H8.23573C8.08418 7.30151 7.9159 7.28212 7.74714 7.24139C7.55672 7.20309 7.38205 7.14007 7.23247 7.05716C6.97169 6.93644 6.76012 6.80021 6.68188 6.72991C6.61989 6.67415 6.55396 6.64361 6.4895 6.62809C6.34681 6.60531 6.2302 6.63197 6.14508 6.66833L6.14262 6.6693C6.09538 6.68967 6.05897 6.71294 6.0324 6.73185C5.70914 6.99753 5.40161 7.2763 5.10984 7.56768C4.34374 8.36133 3.70066 9.26164 3.39904 9.70671C3.23962 9.95882 3.08758 10.2172 2.9444 10.4829C2.81155 10.7287 2.68854 10.9774 2.5739 11.229C2.39529 11.6266 2.22603 12.0542 2.07449 12.5138L2.05382 12.5769L2.02627 12.6641L2.00019 12.7499C1.07123 15.8867 2.74414 17.697 4.14595 15.8058C4.2227 15.686 4.30094 15.5677 4.38065 15.4499L4.38311 15.446C5.85232 12.941 8.86651 11.1326 8.86651 11.1326H8.86799C9.0525 11.0167 9.23849 10.9052 9.42694 10.798L9.42792 10.7971L9.46286 10.7777C9.97949 10.4868 10.5109 10.225 11.0575 9.99712C11.5437 9.7838 12.0603 9.58502 12.4889 9.48224C12.4889 9.48224 12.9907 9.35327 13.1256 8.74482L13.126 8.74434C13.2225 8.308 13.5428 7.66901 14.269 7.32575C14.4398 7.23945 14.6184 7.17546 14.7985 7.13619C14.9938 7.09352 15.1882 7.07801 15.3776 7.08673L15.3791 7.08625C15.5031 7.08431 15.6064 7.09789 15.6954 7.12358C16.616 7.2986 17.3708 8.04329 17.4805 9.02457C17.6134 10.2143 16.774 11.2887 15.5739 11.437C14.9751 11.5112 14.4329 11.3818 13.9709 11.0371C13.4523 10.8242 13.0532 10.9609 12.9095 11.0274C12.4574 11.2703 12.0234 11.5403 11.6076 11.836C10.8351 12.4013 10.2216 12.9914 9.97801 13.2348C9.44416 13.7802 8.97132 14.3591 8.56145 14.9714L8.49601 15.0722L8.47879 15.0994C8.05712 15.7621 7.60789 16.6106 7.23837 17.6369C7.21033 17.7164 7.18228 17.796 7.15571 17.8769C6.76061 19.1937 7.61773 19.7183 8.6082 19.9093C8.6082 19.9093 9.38462 20.0567 10.5025 19.9757C10.568 19.9704 10.6265 19.9646 10.6767 19.9592C10.9591 19.9253 11.2425 19.8957 11.522 19.8487C13.4508 19.5248 15.1562 18.7312 16.6126 17.442C18.4454 15.8189 19.55 13.7962 19.893 11.3939C20.2364 8.98772 19.7542 6.73233 18.4326 4.67766" fill="#FFC40C"/>
</svg>
