<svg width="168" height="70" viewBox="0 0 168 70" fill="none" xmlns="http://www.w3.org/2000/svg">
<path d="M47.4033 9.90335C40.9146 9.90335 36.3826 14.7415 36.3826 21.6679C36.3826 28.3903 40.7698 33.0836 47.0528 33.0836C52.5591 33.0836 58.1163 29.4451 58.1163 21.3174C58.1163 14.4897 53.8114 9.90335 47.4033 9.90335ZM53.163 21.4491C53.163 25.9301 50.6666 29.1818 47.2272 29.1818C43.7879 29.1818 41.2915 25.9663 41.2915 21.5363C41.2915 17.6888 43.1543 13.8051 47.3145 13.8051C51.9403 13.8051 53.163 18.8045 53.163 21.4491Z" fill="#008CCF"/>
<path d="M81.5284 32.6015V18.9954C81.5284 18.4079 81.6304 17.7645 81.8065 17.2346C82.3578 15.6597 83.8323 14.0684 85.886 14.0684C89.2711 14.0684 89.982 17.3432 89.982 20.0914V32.6015H94.7592V19.6092C94.7592 12.4524 90.9002 9.90335 87.2881 9.90335C85.2854 9.90335 83.7451 10.3937 82.2969 11.493C81.5284 12.069 80.8339 12.8062 80.258 13.6537C79.0698 11.3186 76.7972 9.90335 74.1445 9.90335C71.495 9.90335 69.3623 10.9286 67.7891 12.9527L67.6574 10.3839H63.2587L63.2998 10.9269C63.4216 12.5577 63.4742 14.2643 63.4742 16.629V32.6015H68.2515V19.3015C68.2515 18.6548 68.3469 18.0673 68.5362 17.572C69.0727 15.8852 70.6459 14.0684 72.8296 14.0684C75.2833 14.0684 76.7495 16.058 76.7495 19.3904V32.6015H81.5284Z" fill="#008CCF"/>
<path d="M111.715 10.3839H106.589V9.75033C106.589 4.70649 108.651 4.12229 110.201 4.12229C111.064 4.12229 111.817 4.26875 112.443 4.55838L113.038 4.8332L113.751 0.806356L113.374 0.651667C112.897 0.455838 111.602 0 109.895 0C107.741 0 105.779 0.750405 104.376 2.11134C102.645 3.76025 101.766 6.37515 101.766 9.88198V10.3839H98.7872V14.3301H101.766V32.6015H106.589V14.3301H111.715V10.3839Z" fill="#008CCF"/>
<path d="M124.566 9.90335C118.077 9.90335 113.545 14.7415 113.545 21.6679C113.545 28.3903 117.932 33.0836 124.215 33.0836C129.723 33.0836 135.279 29.4451 135.279 21.3174C135.279 14.4897 130.974 9.90335 124.566 9.90335ZM130.325 21.4491C130.325 25.9301 127.829 29.1818 124.39 29.1818C120.95 29.1818 118.454 25.9663 118.454 21.5363C118.454 17.6888 120.317 13.8051 124.478 13.8051C129.103 13.8051 130.325 18.8045 130.325 21.4491Z" fill="#008CCF"/>
<path d="M149.684 9.90335C147.4 9.90335 145.337 11.1754 144.088 13.2571L143.997 10.3839H139.593L139.628 10.922C139.75 12.7355 139.804 14.7662 139.804 17.5061V32.6015H144.626V20.7924C144.626 20.1753 144.706 19.6043 144.792 19.0859C145.302 16.2884 147.093 14.5506 149.466 14.5506C149.936 14.5506 150.297 14.5868 150.672 14.6691L151.286 14.804V10.1469L150.904 10.0498C150.492 9.94614 150.139 9.90335 149.684 9.90335Z" fill="#008CCF"/>
<path d="M162.444 10.3839V5.5481L157.665 6.8251V10.3839H154.379V14.3301H157.665V25.392C157.665 28.2406 158.184 30.1067 159.28 31.2455C160.307 32.4188 161.877 33.0392 163.823 33.0392C165.267 33.0392 166.55 32.8401 167.434 32.4764L167.768 32.3398L167.533 28.4644L166.932 28.629C166.522 28.7409 165.824 28.8742 164.831 28.8742C163.591 28.8742 162.444 28.4364 162.444 25.262V14.3301H167.965V10.3839H162.444Z" fill="#008CCF"/>
<path d="M99.6309 51.332H86.3573V38.9767H81.5356V69.5178H86.3573V55.6732H99.6309V69.5178H104.497V38.9767H99.6309V51.332Z" fill="#F4584C"/>
<path d="M120.096 46.8197C113.943 46.8197 109.645 51.7303 109.645 58.7604C109.645 65.5618 113.937 69.9556 120.579 69.9556C124.095 69.9556 126.468 69.2167 127.841 68.5963L128.221 68.4235L127.329 64.6764L126.778 64.9101C125.486 65.4581 123.903 65.9666 121.104 65.9666C119.16 65.9666 114.702 65.3347 114.355 59.6161H129.182L129.253 58.9661C129.3 58.5613 129.365 58.0067 129.365 57.3139C129.365 52.4725 126.937 46.8197 120.096 46.8197ZM124.62 55.8443H114.462C114.875 53.6672 116.351 50.5899 119.789 50.5899C121.174 50.5899 122.288 51.0111 123.103 51.8405C124.311 53.0698 124.572 54.8701 124.62 55.8443Z" fill="#F4584C"/>
<path d="M150.293 63.9293V55.999C150.293 49.9941 147.331 46.8197 141.726 46.8197C139.045 46.8197 136.406 47.5356 134.485 48.783L134.153 48.9985L135.367 52.5251L135.91 52.1746C137.36 51.2366 139.32 50.6771 141.157 50.6771C143.997 50.6771 145.448 52.1351 145.471 55.0117C140.492 55.0561 136.894 56.1471 134.773 58.2568C133.411 59.6112 132.721 61.344 132.721 63.4043C132.721 66.6824 135.122 70 139.71 70C142.151 70 144.41 69.0587 145.944 67.4394L146.182 69.5178H150.744L150.635 68.9221C150.405 67.6566 150.293 66.0242 150.293 63.9293ZM145.559 58.6896V61.8706C145.559 62.1866 145.49 62.5651 145.366 62.9353C144.861 64.4131 143.34 66.141 140.719 66.141C138.759 66.141 137.587 64.9545 137.587 62.9666C137.587 61.9364 137.91 61.1202 138.575 60.4702C139.781 59.287 142.085 58.6896 145.427 58.6896C145.471 58.6896 145.514 58.6896 145.559 58.6896Z" fill="#F4584C"/>
<path d="M162.479 42.5205L157.7 43.7975V47.3003H154.414V51.2465H157.7V62.3084C157.7 65.1569 158.218 67.0231 159.314 68.1618C160.341 69.3352 161.911 69.9556 163.858 69.9556C165.301 69.9556 166.585 69.7565 167.468 69.3928L167.803 69.2562L167.567 65.3807L166.967 65.5453C166.557 65.6572 165.859 65.7905 164.865 65.7905C163.626 65.7905 162.479 65.3528 162.479 62.1784V51.2465H168V47.3003H162.479V42.5205Z" fill="#F4584C"/>
<path d="M0 21.3966C0 7.52003 12.0883 0.257812 22.8626 0.257812C27.4113 0.257812 31.4072 0.776114 35.2782 1.80928L35.2685 11.5745C31.5187 10.0813 29.8655 9.50641 24.8918 9.50641C18.1087 9.50641 13.4092 14.7325 13.4092 21.2816C13.4092 27.8874 18.1141 32.9663 24.8918 32.9663C29.8655 32.9663 32.1231 31.7597 35.2578 30.5532L35.2632 40.4656C31.6988 41.6155 27.5968 42.2471 22.4954 42.2471C11.4972 42.2471 0 34.7709 0 21.3966Z" fill="#F4584C"/>
</svg>
