<svg width="40" height="40" viewBox="0 0 40 40" fill="none" xmlns="http://www.w3.org/2000/svg">
<path d="M0 8C0 3.58172 3.58172 0 8 0H32C36.4183 0 40 3.58172 40 8V32C40 36.4183 36.4183 40 32 40H8C3.58172 40 0 36.4183 0 32V8Z" fill="white"/>
<rect x="16" y="26" width="16" height="4" rx="1" fill="#BDE3FB"/>
<rect x="16" y="18" width="16" height="4" rx="1" fill="#BDE3FB"/>
<rect x="8" y="26" width="4" height="4" rx="1" fill="#BDE3FB"/>
<rect x="8" y="18" width="4" height="4" rx="1" fill="#BDE3FB"/>
<rect x="16" y="10" width="16" height="4" rx="1" fill="#BDE3FB"/>
<rect x="8" y="10" width="4" height="4" rx="1" fill="#BDE3FB"/>
<path d="M8 1H32V-1H8V1ZM39 8V32H41V8H39ZM32 39H8V41H32V39ZM1 32V8H-1V32H1ZM8 39C4.13401 39 1 35.866 1 32H-1C-1 36.9706 3.02944 41 8 41V39ZM39 32C39 35.866 35.866 39 32 39V41C36.9706 41 41 36.9706 41 32H39ZM32 1C35.866 1 39 4.13401 39 8H41C41 3.02944 36.9706 -1 32 -1V1ZM8 -1C3.02944 -1 -1 3.02944 -1 8H1C1 4.13401 4.13401 1 8 1V-1Z" fill="#BDE3FB"/>
</svg>
