<svg width="20" height="20" viewBox="0 0 20 20" fill="none" xmlns="http://www.w3.org/2000/svg">
<path fill-rule="evenodd" clip-rule="evenodd" d="M20 10C20 15.5228 15.5228 20 10 20C4.47715 20 0 15.5228 0 10C0 4.47715 4.47715 0 10 0C15.5228 0 20 4.47715 20 10ZM4.49426 9.4779C4.50644 13.2204 7.34783 15.5506 10.0782 15.5417C13.4494 15.5301 15.4442 12.7586 15.4358 10.2347C15.4275 7.71086 14.0536 5.88224 11.0275 5.14528C11.0192 5.0918 11.0152 5.03776 11.0153 4.98364C11.0089 3.07421 12.4482 1.39119 14.2569 1.01597C14.0863 0.958243 13.808 0.937078 13.5418 0.937078C11.4733 0.944133 9.19569 1.82862 7.52806 3.20698C5.8213 4.61805 4.48656 7.00276 4.49426 9.4779Z" fill="#E60000"/>
</svg>
